Coordinates
version=1
nRows=4
nColumns=63
inDegrees=yes

Units are S.I. units (second, meters, Newtons, ...)
If the header above contains a line with 'inDegrees', this indicates whether rotational values are in degrees (yes) or radians (no).

endheader
time	pelvis_tilt	pelvis_list	pelvis_rotation	pelvis_tx	pelvis_ty	pelvis_tz	hip_flexion_r	hip_adduction_r	hip_rotation_r	knee_angle_r	knee_angle_r_beta	ankle_angle_r	subtalar_angle_r	mtp_angle_r	hip_flexion_l	hip_adduction_l	hip_rotation_l	knee_angle_l	knee_angle_l_beta	ankle_angle_l	subtalar_angle_l	mtp_angle_l	L5_S1_Flex_Ext	L5_S1_Lat_Bending	L5_S1_axial_rotation	L4_L5_Flex_Ext	L4_L5_Lat_Bending	L4_L5_axial_rotation	L3_L4_Flex_Ext	L3_L4_Lat_Bending	L3_L4_axial_rotation	L2_L3_Flex_Ext	L2_L3_Lat_Bending	L2_L3_axial_rotation	L1_L2_Flex_Ext	L1_L2_Lat_Bending	L1_L2_axial_rotation	L1_T12_Flex_Ext	L1_T12_Lat_Bending	L1_T12_axial_rotation	Abs_r3	Abs_r2	Abs_r1	Abs_t1	Abs_t2	neck_flexion	neck_bending	neck_rotation	arm_flex_r	arm_add_r	arm_rot_r	elbow_flex_r	pro_sup_r	wrist_flex_r	wrist_dev_r	arm_flex_l	arm_add_l	arm_rot_l	elbow_flex_l	pro_sup_l	wrist_flex_l	wrist_dev_l
     11.24200000	    -57.43461564	     -6.53424314	     -6.76303340	     -0.26308555	      1.06593359	     -0.03949435	    122.28241545	     -6.96684686	     -9.88560085	    110.10861147	      1.92175780	     18.35599369	      5.78740853	      0.00000000	     95.51375219	    -11.00486032	      4.45085538	     46.84134533	      0.81753570	    -12.96420147	      1.42820553	      0.00000000	     -0.10170736	      1.20866069	      0.63350422	     -0.18888075	      1.60751872	      0.67309823	     -0.16709503	      2.93873761	      0.67309823	     -0.11624135	      2.93873761	      0.55431619	     -0.09444546	      2.46470089	      0.51472218	     -0.05811559	      1.87221541	      0.47512816	     -0.72648554	     13.67261150	      3.52336040	      0.00000000	      0.00000000	     -0.00000000	      0.00000000	      0.00000000	     61.55492705	    -12.41071006	     20.96266199	     43.86136851	     24.93118858	      0.00000000	      5.00000014	     50.62229776	    -12.33712375	      1.44130549	     52.63682632	     36.72056293	      0.00000000	      5.00000014
     11.25000000	    -57.54673891	     -6.58346823	     -6.71610635	     -0.26321137	      1.06673522	     -0.04026237	    123.46953009	     -7.15835021	    -10.03403447	    109.68371801	      1.91434202	     18.60352313	      5.65338669	      0.00000000	     94.78875045	    -11.07090098	      4.36528454	     47.03211028	      0.82086518	    -13.10614921	      1.46456972	      0.00000000	     -0.10470513	      1.23778321	      0.61045075	     -0.19444789	      1.64625167	      0.64860392	     -0.17202005	      3.00954610	      0.64860392	     -0.11966749	      3.00954610	      0.53414441	     -0.09722918	      2.52408752	      0.49599124	     -0.05982851	      1.91732619	      0.45783806	     -0.74789824	     14.00205124	      3.39514395	      0.00000000	      0.00000000	     -0.00000000	      0.00000000	      0.00000000	     61.71381014	    -12.34214169	     20.96805323	     43.93822702	     24.96223662	      0.00000000	      5.00000014	     50.57127480	    -12.36061452	      1.40529314	     52.59152710	     36.72413946	      0.00000000	      5.00000014
     11.25800000	    -57.74692554	     -6.62923346	     -6.54668317	     -0.26356642	      1.06787522	     -0.04109011	    124.45322118	     -7.34388475	    -10.11859201	    108.77670828	      1.89851171	     18.86228815	      5.40354266	      0.00000000	     94.27828923	    -11.04725008	      4.16435406	     47.38797805	      0.82707624	    -13.22925258	      1.54082616	      0.00000000	     -0.10043031	      1.26351256	      0.55563888	     -0.18650913	      1.68047170	      0.59036631	     -0.16499696	      3.07210443	      0.59036631	     -0.11478180	      3.07210443	      0.48618402	     -0.09325959	      2.57655480	      0.45145659	     -0.05738588	      1.95718095	      0.41672916	     -0.71736366	     14.29310673	      3.09029674	      0.00000000	      0.00000000	     -0.00000000	      0.00000000	      0.00000000	     61.88045318	    -12.21289129	     20.99358411	     44.00046863	     24.99377921	      0.00000000	      5.00000014	     50.56573978	    -12.44096026	      1.31022892	     52.56619798	     36.72143569	      0.00000000	      5.00000014
     11.26700000	    -57.93428272	     -6.80993970	     -6.41037446	     -0.26385705	      1.06907343	     -0.04163397	    125.08623850	     -7.43701929	    -10.62766634	    107.51116486	      1.87642381	     19.05268502	      3.19645416	      0.00000000	     94.11061062	    -11.19178050	      3.93201511	     48.30169417	      0.84302360	    -13.38165310	      2.12758718	      0.00000000	     -0.10070366	      1.30420194	      0.49377465	     -0.18701676	      1.73458859	      0.52463557	     -0.16544604	      3.17103661	      0.52463557	     -0.11509421	      3.17103661	      0.43205282	     -0.09351342	      2.65952861	      0.40119191	     -0.05754207	      2.02020881	      0.37033099	     -0.71931615	     14.75339324	      2.74622649	      0.00000000	      0.00000000	     -0.00000000	      0.00000000	      0.00000000	     62.23250342	    -11.99342067	     21.35780023	     43.70134984	     24.99817608	      0.00000000	      5.00000014	     50.32167323	    -12.43521479	      0.59601035	     52.89602483	     36.59641121	      0.00000000	      5.00000014
